<?xml version="1.0" standalone="no"?>
<!DOCTYPE svg PUBLIC "-//W3C//DTD SVG 20010904//EN"
 "http://www.w3.org/TR/2001/REC-SVG-20010904/DTD/svg10.dtd">
<svg version="1.0" xmlns="http://www.w3.org/2000/svg"
 width="230.000000pt" height="188.000000pt" viewBox="0 0 230.000000 188.000000"
 preserveAspectRatio="xMidYMid meet">

<g transform="translate(0.000000,188.000000) scale(0.100000,-0.100000)"
fill="#000000" stroke="none">
<path d="M603 1677 c-33 -125 -26 -119 -125 -103 -58 10 -59 7 -91 -145 -21
-101 -27 -118 -58 -150 -25 -26 -40 -56 -56 -115 -27 -94 -123 -522 -123 -546
0 -9 7 -24 16 -32 18 -18 192 -21 654 -9 l265 6 39 44 c29 31 47 43 68 43 45
0 91 -24 121 -64 24 -31 34 -36 68 -36 23 0 53 7 67 15 15 8 167 65 337 126
171 60 320 116 332 124 42 28 38 46 -60 262 -51 114 -106 238 -122 274 -16 37
-37 70 -48 75 -13 6 -32 39 -51 90 l-31 81 -47 -32 c-58 -40 -134 -55 -284
-55 -127 0 -210 -18 -260 -56 -19 -15 -36 -25 -37 -23 -2 2 -15 23 -30 46 -35
55 -98 91 -208 119 -110 28 -185 65 -253 126 l-53 47 -30 -112z m179 -38 c22
-11 92 -33 156 -50 124 -31 166 -55 210 -119 19 -28 22 -47 23 -124 0 -72 2
-86 11 -66 5 14 8 53 5 88 -5 60 -4 63 26 88 50 42 73 47 273 54 177 6 195 9
248 33 32 15 60 27 61 27 1 0 5 -8 8 -17 35 -119 159 -432 164 -416 5 14 -43
146 -79 217 -16 32 -27 61 -23 64 11 12 27 -18 64 -123 22 -63 41 -102 45 -94
3 8 3 3 0 -10 -5 -17 -3 -21 7 -16 9 6 11 4 6 -8 -3 -9 14 -70 39 -136 24 -66
44 -125 44 -130 0 -5 -8 -11 -17 -14 -10 -3 -97 -35 -193 -72 -200 -77 -414
-151 -463 -160 -28 -6 -35 -3 -47 19 -20 38 -55 57 -123 66 -75 11 -134 -11
-163 -59 l-18 -31 -408 0 c-281 0 -408 3 -408 11 0 5 4 8 9 5 9 -6 61 104 61
129 0 24 19 27 71 10 89 -30 192 -18 332 38 66 27 153 53 200 61 45 8 69 14
54 15 -16 1 -26 5 -23 10 3 5 19 8 36 7 17 -1 36 1 43 6 20 13 -50 9 -153 -8
-141 -23 -319 -20 -400 5 -36 12 -71 25 -79 30 -25 16 19 417 61 549 8 25 14
32 29 27 20 -5 37 -9 81 -19 20 -5 26 -11 24 -29 -4 -32 -15 -49 -28 -41 -6 4
-8 1 -6 -7 3 -8 11 -13 17 -11 8 1 6 -9 -4 -28 -9 -17 -13 -35 -10 -39 3 -5 0
-32 -6 -60 -6 -27 -9 -63 -7 -78 4 -38 43 113 58 227 9 72 40 213 55 258 3 8
20 1 51 -23 26 -20 65 -45 86 -56z m-428 -403 c-3 -9 -10 -16 -15 -16 -6 0 -5
9 1 21 13 24 24 20 14 -5z m-35 -268 c-14 -98 -27 -146 -49 -192 -17 -34 -28
-50 -25 -36 10 48 35 185 35 192 0 4 -7 4 -17 1 -11 -4 -14 -3 -9 5 4 7 14 12
22 12 8 0 14 9 14 21 0 11 -5 17 -10 14 -6 -4 -7 -12 -4 -18 5 -9 3 -9 -6 0
-9 9 -10 16 -3 25 6 7 9 21 8 31 -2 9 5 22 15 27 11 6 20 27 25 57 7 44 8 46
16 20 4 -16 0 -79 -12 -159z m1747 19 c-2 -7 -5 -4 -5 6 -1 9 -6 17 -12 17 -5
0 -7 5 -3 11 9 15 28 -16 20 -34z m-1712 -50 c-5 -9 -4 -9 5 -1 10 9 19 8 39
-2 15 -8 33 -14 40 -14 6 0 12 -4 12 -10 0 -5 -5 -9 -11 -7 -6 1 -13 -4 -14
-11 -2 -8 -1 -8 2 -1 4 8 8 7 14 -2 7 -11 9 -11 9 -1 0 7 5 10 12 6 7 -4 8 -3
4 4 -5 8 2 12 18 12 32 0 32 -6 0 -55 l-25 -40 25 30 c26 31 34 28 16 -5 -8
-15 -6 -18 8 -15 9 2 18 4 20 5 1 2 12 3 23 4 12 0 28 12 37 26 l14 25 -22
-25 c-14 -16 -20 -19 -17 -8 4 12 1 16 -14 13 -20 -4 -24 2 -11 23 8 12 112
14 112 2 0 -4 -7 -15 -16 -26 -14 -17 -15 -17 -10 -1 8 24 -10 12 -26 -16 -10
-20 -10 -21 5 -8 10 7 17 9 17 3 0 -29 -167 -41 -240 -17 -47 16 -50 19 -50
50 0 19 4 36 9 39 5 3 7 16 3 28 -3 14 -2 19 7 14 6 -4 8 -13 5 -19z m516 -17
c0 -5 -5 -10 -11 -10 -5 0 -7 5 -4 10 3 6 8 10 11 10 2 0 4 -4 4 -10z m-608
-7 c-6 -2 -9 -10 -6 -15 4 -7 2 -8 -5 -4 -13 9 -5 26 12 25 9 0 8 -2 -1 -6z
m578 -3 c0 -5 -5 -10 -11 -10 -5 0 -7 5 -4 10 3 6 8 10 11 10 2 0 4 -4 4 -10z
m-70 -12 c0 6 5 12 11 12 8 0 8 -4 0 -14 -7 -8 -21 -13 -32 -11 -11 2 -22 -2
-26 -10 -8 -21 -26 -18 -19 3 4 11 -1 8 -15 -8 -17 -21 -20 -22 -15 -5 5 15 0
12 -19 -10 -27 -31 -28 -28 -6 16 10 21 21 26 54 27 22 1 43 4 45 7 3 3 9 0
14 -7 6 -10 8 -10 8 0z m1322 -20 c-8 -8 -9 -4 -5 13 4 13 8 18 11 10 2 -7 -1
-18 -6 -23z m-1570 0 c-7 -7 -12 -8 -12 -2 0 14 12 26 19 19 2 -3 -1 -11 -7
-17z m1590 -10 c-8 -8 -9 -4 -5 13 4 13 8 18 11 10 2 -7 -1 -18 -6 -23z
m-1859 -5 c-6 -2 -9 -15 -7 -29 2 -13 0 -24 -6 -24 -6 0 -9 -4 -5 -9 3 -5 1
-12 -4 -15 -7 -5 -8 22 -1 32 2 1 3 10 4 20 2 23 16 45 25 36 3 -4 1 -9 -6
-11z m269 -25 c-7 -7 -12 -8 -12 -2 0 14 12 26 19 19 2 -3 -1 -11 -7 -17z
m1508 12 c-8 -5 -19 -10 -25 -10 -5 0 -3 5 5 10 8 5 20 10 25 10 6 0 3 -5 -5
-10z m-103 -52 c-3 -8 -6 -5 -6 6 -1 11 2 17 5 13 3 -3 4 -12 1 -19z m-20 -10
c-3 -8 -6 -5 -6 6 -1 11 2 17 5 13 3 -3 4 -12 1 -19z m-17 -2 c0 -7 -9 -16
-20 -19 -13 -3 -20 0 -20 9 0 8 6 11 15 8 8 -4 15 -1 15 5 0 6 2 11 5 11 3 0
5 -6 5 -14z m-95 -36 c3 -5 1 -10 -4 -10 -6 0 -11 5 -11 10 0 6 2 10 4 10 3 0
8 -4 11 -10z m-1579 -52 c-1 -18 -4 -37 -7 -43 -4 -5 -5 -21 -4 -34 2 -22 1
-23 -11 -6 -9 12 -10 22 -4 30 5 7 7 15 3 18 -3 4 -1 13 5 20 7 8 9 17 6 20
-6 5 3 27 11 27 2 0 3 -15 1 -32z m1484 18 c0 -2 -7 -6 -15 -10 -8 -3 -15 -1
-15 4 0 6 7 10 15 10 8 0 15 -2 15 -4z m-555 -15 c3 -6 -3 -15 -14 -21 -14 -7
-22 -7 -27 2 -4 6 -3 8 3 5 6 -4 13 0 17 8 6 17 12 19 21 6z m75 -1 c0 -5 -5
-10 -11 -10 -5 0 -7 5 -4 10 3 6 8 10 11 10 2 0 4 -4 4 -10z m93 -24 c4 -10 1
-13 -8 -9 -8 3 -12 9 -9 14 7 12 11 11 17 -5z m277 4 c0 -5 -5 -10 -11 -10 -5
0 -7 5 -4 10 3 6 8 10 11 10 2 0 4 -4 4 -10z m-505 -59 c-8 -14 -25 -14 -25 0
0 5 5 7 10 4 6 -3 10 -1 10 6 0 7 3 10 6 6 3 -3 3 -10 -1 -16z m-821 0 c-9 -9
-45 -11 -39 -2 3 6 14 9 25 8 10 -1 17 -3 14 -6z m93 3 c-3 -3 -12 -4 -19 -1
-8 3 -5 6 6 6 11 1 17 -2 13 -5z m143 -8 c0 -6 4 -5 9 2 7 11 9 11 14 0 3 -10
-3 -14 -19 -14 -13 0 -24 4 -24 9 0 4 -5 5 -12 1 -6 -4 -8 -3 -5 3 8 13 37 12
37 -1z m70 3 c0 -5 -4 -8 -9 -5 -5 4 -11 1 -13 -6 -3 -8 -7 -6 -11 5 -5 12 -1
17 13 17 11 0 20 -5 20 -11z m70 -4 c0 -5 5 -3 10 5 9 13 10 13 10 0 0 -13 1
-13 10 0 9 13 10 13 10 0 0 -13 1 -13 11 0 8 12 10 12 7 1 -5 -18 -78 -26 -78
-8 0 8 -4 7 -10 -3 -9 -13 -10 -13 -10 0 0 13 -1 13 -10 0 -8 -13 -10 -13 -10
1 0 12 8 16 30 15 17 0 30 -5 30 -11z m102 6 c8 11 9 11 6 1 -4 -16 -22 -18
-24 -2 -2 7 -1 6 3 -1 4 -8 8 -7 15 2z m89 -1 c9 13 10 13 6 0 -2 -8 -13 -16
-25 -18 -17 -3 -20 0 -16 13 6 13 9 14 15 3 7 -11 11 -10 20 2z m596 -12 c-3
-8 -6 -5 -6 6 -1 11 2 17 5 13 3 -3 4 -12 1 -19z"/>
<path d="M689 1636 c16 -19 1 -21 -19 -3 -12 10 -12 9 0 -6 16 -22 69 -51 78
-43 3 3 -1 6 -9 6 -11 0 -12 2 -1 9 10 6 3 14 -24 30 -25 15 -33 17 -25 7z
m36 -26 c3 -5 2 -10 -4 -10 -5 0 -13 5 -16 10 -3 6 -2 10 4 10 5 0 13 -4 16
-10z"/>
<path d="M531 1501 c-6 -10 -7 -22 -3 -26 4 -5 1 -5 -6 -1 -7 5 -11 14 -8 22
3 8 0 11 -9 8 -16 -6 -12 -40 4 -36 16 3 14 -9 -6 -33 -10 -12 -4 -7 14 11 17
18 34 27 36 21 2 -6 6 -3 10 6 4 10 2 16 -5 14 -6 -1 -13 4 -16 12 -3 9 0 11
8 6 9 -5 11 -4 6 3 -10 16 -14 15 -25 -7z"/>
<path d="M1070 1496 c0 -2 12 -12 28 -21 l27 -18 -19 21 c-17 20 -36 29 -36
18z"/>
<path d="M1253 1448 c-4 -7 -8 -16 -9 -20 -1 -5 -3 -10 -4 -13 -1 -3 -4 -9 -5
-15 -1 -5 -4 -11 -5 -12 -1 -2 -3 -20 -4 -40 -2 -27 1 -35 9 -28 6 5 27 17 46
25 33 16 13 15 -26 -1 -17 -7 -18 -6 -7 8 10 12 10 18 1 23 -8 6 -7 10 5 17 9
5 14 13 11 19 -4 5 6 14 20 21 18 8 22 14 13 20 -19 11 -36 10 -45 -4z m27 -8
c-8 -5 -19 -10 -25 -10 -5 0 -3 5 5 10 8 5 20 10 25 10 6 0 3 -5 -5 -10z m-35
-69 c3 -5 2 -12 -3 -15 -5 -3 -9 1 -9 9 0 17 3 19 12 6z"/>
<path d="M1101 1445 c0 -5 6 -19 14 -29 8 -11 15 -15 15 -10 0 6 -7 19 -15 30
-8 10 -14 15 -14 9z"/>
<path d="M519 1423 c-13 -17 -13 -17 5 -3 18 14 19 13 12 -5 -6 -16 -5 -18 5
-7 9 8 10 15 3 22 -8 8 -15 5 -25 -7z"/>
<path d="M1116 1377 c3 -10 9 -15 12 -12 3 3 0 11 -7 18 -10 9 -11 8 -5 -6z"/>
<path d="M1098 1359 c8 -10 11 -22 8 -28 -4 -5 -2 -12 3 -15 21 -13 20 14 -1
36 -13 13 -17 16 -10 7z"/>
<path d="M1171 1148 c-1 -26 -6 -50 -13 -54 -6 -4 -8 -3 -5 3 3 5 0 10 -7 10
-9 0 -12 -7 -8 -16 5 -14 4 -14 -12 -2 -13 11 -11 5 6 -21 25 -39 37 -43 18
-6 -10 19 -10 21 1 11 7 -7 13 -32 14 -55 1 -24 5 -74 8 -113 l7 -70 -21 51
c-34 84 -87 145 -154 179 -57 28 -67 30 -201 32 -92 2 -155 8 -182 17 -23 9
-42 13 -42 11 0 -12 64 -35 123 -45 37 -7 64 -16 61 -21 -3 -5 0 -9 6 -9 6 0
8 -5 4 -12 -5 -7 -3 -8 6 -3 10 6 12 4 6 -10 -5 -15 -4 -16 8 -6 10 9 16 9 21
1 5 -8 11 -8 21 1 8 6 14 8 14 4 0 -4 6 -2 13 4 8 6 16 9 19 6 3 -3 13 4 22
14 22 25 50 17 36 -9 -7 -14 -6 -18 5 -16 8 1 18 6 22 11 5 4 1 5 -7 0 -8 -5
-12 -4 -7 0 4 5 14 10 23 11 11 2 13 -3 8 -19 -6 -22 -6 -22 10 -2 13 17 17
18 26 5 5 -8 8 -21 5 -27 -2 -7 -1 -12 3 -12 4 1 10 0 15 -1 4 -1 11 -3 16 -4
12 -1 81 -73 81 -84 0 -4 -11 -8 -25 -8 -17 0 -24 4 -21 13 7 18 -14 28 -25
12 -9 -15 8 -42 25 -36 5 2 18 -4 28 -12 10 -9 22 -16 26 -15 4 1 12 -6 19
-15 6 -9 15 -12 19 -8 12 12 8 296 -4 332 -10 29 -10 28 -11 -17z m-274 -91
c-1 -5 -7 -9 -12 -9 -6 0 -16 -4 -22 -10 -7 -6 -13 -7 -13 -3 0 4 -6 2 -14 -4
-17 -14 -31 2 -20 22 5 8 2 8 -9 -2 -15 -12 -25 -2 -12 11 9 9 105 4 102 -5z
m157 -53 c3 -8 2 -12 -4 -9 -6 3 -10 10 -10 16 0 14 7 11 14 -7z m96 -130 c0
-8 -5 -12 -10 -9 -6 4 -8 11 -5 16 9 14 15 11 15 -7z"/>
<path d="M826 1043 c-6 -14 -5 -15 5 -6 7 7 10 15 7 18 -3 3 -9 -2 -12 -12z"/>
<path d="M678 1153 c6 -2 18 -2 25 0 6 3 1 5 -13 5 -14 0 -19 -2 -12 -5z"/>
<path d="M1818 1086 c-26 -13 -45 -26 -41 -29 3 -4 -5 -7 -18 -8 -13 0 -18 -3
-12 -6 20 -7 84 17 76 30 -4 7 0 8 13 3 10 -4 15 -4 11 0 -4 4 1 13 11 20 24
18 15 16 -40 -10z"/>
<path d="M1254 1048 l-19 -21 28 18 c28 18 33 25 19 25 -5 0 -17 -10 -28 -22z"/>
<path d="M1970 1066 c0 -2 8 -10 18 -17 15 -13 16 -12 3 4 -13 16 -21 21 -21
13z"/>
<path d="M904 1028 l-19 -23 23 19 c21 18 27 26 19 26 -2 0 -12 -10 -23 -22z"/>
<path d="M1870 1022 c-53 -26 -64 -27 -260 -32 l-205 -5 -67 -33 c-68 -33
-139 -101 -137 -131 1 -13 2 -12 6 2 2 9 11 17 19 17 8 0 19 10 24 23 5 12 9
16 9 8 1 -8 -9 -26 -21 -39 -19 -21 -15 -20 26 8 26 18 60 33 74 33 14 0 42 7
61 15 28 13 75 16 212 17 153 1 185 4 245 24 39 12 84 33 100 46 l29 24 -50
-24 c-27 -14 -75 -29 -105 -35 -59 -11 -360 -13 -360 -2 0 4 5 14 10 22 8 12
10 12 10 -5 0 -17 2 -17 10 -5 8 13 10 13 10 1 0 -11 4 -9 15 5 8 10 15 15 15
9 0 -13 168 -8 235 7 53 11 139 51 150 68 8 13 11 13 -55 -18z m-406 -76 c-4
-9 -13 -15 -20 -12 -8 3 -14 0 -14 -6 0 -6 -3 -9 -6 -5 -3 3 -1 14 5 24 8 14
11 15 11 3 0 -12 3 -11 11 3 13 22 22 17 13 -7z m-49 -8 c-5 -12 -58 -38 -78
-38 -12 0 -8 28 5 36 8 5 9 2 5 -10 -6 -14 -3 -15 13 -6 11 6 20 16 20 23 0 8
3 8 9 -1 6 -11 10 -10 15 4 3 9 9 15 11 12 3 -3 3 -12 0 -20z m-98 -40 c-3 -8
-6 -5 -6 6 -1 11 2 17 5 13 3 -3 4 -12 1 -19z m-26 -21 c-8 -8 -11 -7 -11 4 0
20 13 34 18 19 3 -7 -1 -17 -7 -23z"/>
<path d="M1121 1010 c29 -45 29 -45 29 -34 0 5 -12 23 -26 39 l-26 30 23 -35z"/>
<path d="M1264 1025 c-10 -8 -14 -14 -9 -14 6 0 19 6 29 14 11 8 15 15 10 15
-6 0 -19 -7 -30 -15z"/>
<path d="M1273 1000 c-46 -27 -41 -34 5 -8 46 27 48 28 36 28 -5 0 -24 -9 -41
-20z"/>
<path d="M1308 990 c-20 -11 -39 -24 -43 -29 -4 -8 77 32 94 46 13 10 -19 -1
-51 -17z"/>
<path d="M1018 926 c-10 -7 -15 -16 -11 -19 10 -11 43 -8 43 3 0 5 -7 7 -15 4
-8 -4 -15 -3 -15 0 0 4 10 11 23 16 12 5 15 9 7 9 -8 0 -23 -6 -32 -13z"/>
<path d="M2014 921 c5 -8 3 -11 -5 -10 -24 5 -60 -12 -53 -23 5 -8 1 -9 -12
-4 -14 5 -16 4 -8 -4 9 -9 21 -8 48 5 42 20 51 31 35 41 -8 5 -9 3 -5 -5z"/>
<path d="M1753 883 c9 -2 23 -2 30 0 6 3 -1 5 -18 5 -16 0 -22 -2 -12 -5z"/>
<path d="M1590 864 l-95 -13 85 5 c47 3 101 9 120 14 52 12 3 10 -110 -6z"/>
<path d="M1314 855 c-19 -15 -19 -15 1 -9 15 5 11 -2 -15 -32 l-35 -38 40 34
c22 19 37 37 33 38 -5 2 -6 8 -2 13 8 13 1 11 -22 -6z"/>
<path d="M1099 816 c19 -20 36 -36 38 -36 10 0 -33 53 -51 62 -14 7 -10 -1 13
-26z"/>
<path d="M1458 843 c6 -2 18 -2 25 0 6 3 1 5 -13 5 -14 0 -19 -2 -12 -5z"/>
<path d="M978 833 c7 -3 16 -2 19 1 4 3 -2 6 -13 5 -11 0 -14 -3 -6 -6z"/>
<path d="M995 821 c-18 -7 -17 -8 7 -14 15 -4 34 -4 44 0 11 4 15 3 11 -4 -4
-6 0 -13 8 -17 22 -8 14 17 -10 31 -23 14 -32 15 -60 4z m42 -7 c-3 -3 -12 -4
-19 -1 -8 3 -5 6 6 6 11 1 17 -2 13 -5z"/>
<path d="M1150 812 c6 -13 14 -21 18 -18 3 4 -2 14 -12 24 -18 16 -18 16 -6
-6z"/>
<path d="M1568 813 c12 -2 30 -2 40 0 9 3 -1 5 -23 4 -22 0 -30 -2 -17 -4z"/>
<path d="M738 803 c12 -2 30 -2 40 0 9 3 -1 5 -23 4 -22 0 -30 -2 -17 -4z"/>
<path d="M1242 803 c-7 -2 -17 -14 -23 -26 -11 -20 -10 -20 17 3 16 14 31 26
33 28 7 4 -14 1 -27 -5z"/>
<path d="M1503 803 c9 -2 23 -2 30 0 6 3 -1 5 -18 5 -16 0 -22 -2 -12 -5z"/>
<path d="M688 793 c7 -3 16 -2 19 1 4 3 -2 6 -13 5 -11 0 -14 -3 -6 -6z"/>
<path d="M1458 793 c7 -3 16 -2 19 1 4 3 -2 6 -13 5 -11 0 -14 -3 -6 -6z"/>
<path d="M1658 793 c6 -2 18 -2 25 0 6 3 1 5 -13 5 -14 0 -19 -2 -12 -5z"/>
<path d="M1345 773 c-14 -8 -25 -16 -25 -19 0 -2 9 0 20 6 11 6 25 8 30 5 5
-3 24 0 41 8 l33 13 -37 0 c-20 0 -48 -6 -62 -13z"/>
<path d="M1578 783 c12 -2 30 -2 40 0 9 3 -1 5 -23 4 -22 0 -30 -2 -17 -4z"/>
<path d="M378 773 c6 -2 18 -2 25 0 6 3 1 5 -13 5 -14 0 -19 -2 -12 -5z"/>
<path d="M908 773 c12 -2 32 -2 45 0 12 2 2 4 -23 4 -25 0 -35 -2 -22 -4z"/>
<path d="M1508 773 c6 -2 18 -2 25 0 6 3 1 5 -13 5 -14 0 -19 -2 -12 -5z"/>
<path d="M318 763 c7 -3 16 -2 19 1 4 3 -2 6 -13 5 -11 0 -14 -3 -6 -6z"/>
<path d="M448 763 c7 -3 16 -2 19 1 4 3 -2 6 -13 5 -11 0 -14 -3 -6 -6z"/>
<path d="M843 763 c9 -2 23 -2 30 0 6 3 -1 5 -18 5 -16 0 -22 -2 -12 -5z"/>
<path d="M1458 763 c7 -3 16 -2 19 1 4 3 -2 6 -13 5 -11 0 -14 -3 -6 -6z"/>
<path d="M798 753 c7 -3 16 -2 19 1 4 3 -2 6 -13 5 -11 0 -14 -3 -6 -6z"/>
<path d="M758 743 c7 -3 16 -2 19 1 4 3 -2 6 -13 5 -11 0 -14 -3 -6 -6z"/>
<path d="M1030 740 c20 -13 33 -13 25 0 -3 6 -14 10 -23 10 -15 0 -15 -2 -2
-10z"/>
<path d="M708 733 c6 -2 18 -2 25 0 6 3 1 5 -13 5 -14 0 -19 -2 -12 -5z"/>
<path d="M633 723 c9 -2 25 -2 35 0 9 3 1 5 -18 5 -19 0 -27 -2 -17 -5z"/>
<path d="M953 713 c9 -2 25 -2 35 0 9 3 1 5 -18 5 -19 0 -27 -2 -17 -5z"/>
<path d="M353 703 c15 -2 39 -2 55 0 15 2 2 4 -28 4 -30 0 -43 -2 -27 -4z"/>
<path d="M613 693 c15 -2 37 -2 50 0 12 2 0 4 -28 4 -27 0 -38 -2 -22 -4z"/>
<path d="M363 683 c15 -2 39 -2 55 0 15 2 2 4 -28 4 -30 0 -43 -2 -27 -4z"/>
<path d="M873 683 c26 -2 68 -2 95 0 26 2 4 3 -48 3 -52 0 -74 -1 -47 -3z"/>
<path d="M291 1024 c0 -11 3 -14 6 -6 3 7 2 16 -1 19 -3 4 -6 -2 -5 -13z"/>
<path d="M292 910 c0 -14 2 -19 5 -12 2 6 2 18 0 25 -3 6 -5 1 -5 -13z"/>
<path d="M282 860 c0 -14 2 -19 5 -12 2 6 2 18 0 25 -3 6 -5 1 -5 -13z"/>
<path d="M356 908 c-14 -19 -14 -24 -1 -38 8 -9 12 -21 8 -25 -5 -5 -1 -4 8 3
14 10 18 10 22 -1 8 -21 58 -14 74 9 12 19 11 21 -13 20 -14 -1 -33 -11 -41
-21 -12 -15 -14 -16 -10 -3 4 12 1 16 -13 13 -10 -2 -25 4 -32 13 -11 13 -11
14 2 7 31 -19 46 -13 41 18 0 4 4 7 11 7 6 0 8 3 5 6 -4 4 -13 1 -21 -5 -11
-9 -16 -9 -22 0 -5 8 -3 9 6 4 9 -5 11 -4 6 3 -10 16 -13 15 -30 -10z m95 -61
c-10 -9 -11 -8 -5 6 3 10 9 15 12 12 3 -3 0 -11 -7 -18z"/>
<path d="M108 451 c-13 -4 -15 -10 -8 -21 15 -23 13 -253 -2 -268 -9 -9 -6
-12 15 -12 24 0 26 2 17 19 -5 11 -10 66 -9 123 l0 103 63 -123 c58 -116 63
-122 73 -99 10 21 3 40 -53 150 -35 69 -68 128 -72 130 -4 3 -15 2 -24 -2z"/>
<path d="M373 451 c-13 -8 -25 -44 -13 -36 15 9 13 -238 -2 -253 -9 -9 -2 -12
31 -12 36 0 42 2 32 14 -8 10 -11 56 -9 150 3 118 1 136 -13 139 -9 3 -21 2
-26 -2z"/>
<path d="M1156 452 c-3 -3 -6 -69 -6 -148 0 -104 -3 -144 -12 -147 -7 -3 5 -6
27 -6 l40 -1 -3 149 c-3 136 -5 149 -22 154 -10 3 -21 2 -24 -1z"/>
<path d="M1400 440 c-11 -11 -20 -26 -20 -32 0 -9 3 -8 10 2 5 8 11 12 13 10
2 -3 25 -58 51 -124 37 -92 44 -121 35 -132 -10 -12 -3 -14 36 -14 45 0 47 1
33 18 -8 9 -39 79 -69 154 -30 76 -57 138 -61 138 -5 0 -17 -9 -28 -20z"/>
<path d="M492 433 c9 -10 35 -49 58 -87 39 -65 41 -73 38 -132 l-3 -64 40 1
c22 0 34 3 28 6 -22 8 -16 120 8 159 11 19 18 34 16 34 -3 0 -14 -14 -24 -31
l-20 -30 -49 80 c-43 71 -52 81 -78 81 -27 0 -28 -1 -14 -17z"/>
<path d="M715 440 c4 -6 -4 -27 -16 -48 -25 -42 -15 -34 25 21 26 36 26 37 6
37 -12 0 -18 -5 -15 -10z"/>
<path d="M828 313 c3 -121 1 -139 -14 -150 -15 -11 -5 -13 62 -12 59 1 69 3
39 8 l-40 6 -3 143 c-2 139 -3 142 -25 142 -22 0 -22 -1 -19 -137z"/>
<path d="M966 440 c83 -33 111 -189 46 -256 l-27 -27 33 19 c49 28 72 71 72
136 0 41 -5 62 -21 82 -25 32 -70 56 -101 55 -22 0 -22 -1 -2 -9z"/>
<path d="M1628 314 c2 -93 -1 -140 -9 -150 -10 -12 -4 -14 32 -13 24 0 38 3
32 6 -8 3 -13 26 -13 63 0 47 3 59 18 63 16 4 16 5 0 6 -16 1 -18 12 -18 81 0
76 -1 80 -22 80 -23 0 -23 -1 -20 -136z"/>
<path d="M1775 438 c11 -6 26 -18 33 -26 15 -20 16 -76 0 -105 -11 -21 -10
-21 8 -7 34 25 44 43 44 76 0 39 -38 74 -79 74 -24 -1 -25 -1 -6 -12z"/>
<path d="M1976 368 c51 -78 54 -87 54 -145 0 -40 -4 -63 -12 -66 -7 -3 10 -5
37 -5 28 0 44 2 38 5 -22 8 -16 120 8 159 11 19 18 34 16 34 -3 0 -14 -14 -25
-31 l-20 -31 -48 81 c-41 69 -53 81 -75 81 -27 0 -27 0 27 -82z"/>
<path d="M2155 440 c4 -6 -4 -27 -16 -48 -25 -42 -15 -34 25 21 26 36 26 37 6
37 -12 0 -18 -5 -15 -10z"/>
<path d="M336 385 c-9 -26 -7 -32 5 -12 6 10 9 21 6 23 -2 3 -7 -2 -11 -11z"/>
<path d="M1356 355 c-9 -26 -7 -32 5 -12 6 10 9 21 6 23 -2 3 -7 -2 -11 -11z"/>
<path d="M312 325 c-17 -37 -14 -45 4 -12 9 16 14 31 11 33 -2 2 -9 -7 -15
-21z"/>
<path d="M1322 275 c-17 -37 -14 -45 4 -12 9 16 14 31 11 33 -2 2 -9 -7 -15
-21z"/>
<path d="M1754 280 c-21 -5 -20 -8 23 -67 40 -57 48 -63 80 -63 l35 0 -30 25
c-17 14 -43 45 -59 68 -22 34 -32 42 -49 37z"/>
<path d="M286 265 c-9 -26 -7 -32 5 -12 6 10 9 21 6 23 -2 3 -7 -2 -11 -11z"/>
<path d="M1283 189 l-21 -39 25 0 c21 0 23 3 14 14 -10 11 -10 20 -1 36 6 12
10 23 8 25 -2 2 -13 -14 -25 -36z"/>
</g>
</svg>
